<svg width="103" height="208" viewBox="0 0 103 208" fill="none" xmlns="http://www.w3.org/2000/svg">
<path d="M77 30C77 44.9117 64.9117 57 50 57C35.0883 57 23 44.9117 23 30C23 15.0883 35.0883 3 50 3C64.9117 3 77 15.0883 77 30Z" stroke="black" stroke-width="6"/>
<path d="M51 54V147" stroke="black" stroke-width="6"/>
<path d="M50.5072 61.9284L2.29811 119.382" stroke="black" stroke-width="6"/>
<path d="M51.0981 141.5L13.5981 206.452" stroke="black" stroke-width="6"/>
<path d="M88.9019 206.452L51.4019 141.5" stroke="black" stroke-width="6"/>
<path d="M99.9109 119.382L51.7018 61.9284" stroke="black" stroke-width="6"/>
<path d="M31.643 33.9995L44.4988 18.6786M32.383 18.7004L45.2388 34.0213" stroke="black"/>
<path d="M55.643 33.9995L68.4988 18.6786M56.383 18.7004L69.2388 34.0213" stroke="black"/>
</svg>
